<svg class="social-icon icon-tw" xmlns="http://www.w3.org/2000/svg" viewBox="0 0 33.19 27"><title>icon-tw</title><path d="M33.19 3.23a13.26 13.26 0 0 1-3.37 3.52v.84A19.75 19.75 0 0 1 24.5 21q-5.31 6-14.1 6A18.77 18.77 0 0 1 0 23.91a14.58 14.58 0 0 0 1.62.09 13.23 13.23 0 0 0 8.44-3 6.83 6.83 0 0 1-3.94-1.37 6.43 6.43 0 0 1-2.39-3.34 8.33 8.33 0 0 0 1.27.23 7.89 7.89 0 0 0 1.83-.28 6.87 6.87 0 0 1-3.9-2.36 6.48 6.48 0 0 1-1.59-4.32v-.07a6.41 6.41 0 0 0 3.09.84 6.38 6.38 0 0 1-3-5.7 6.77 6.77 0 0 1 .91-3.37 18.43 18.43 0 0 0 14 7.1 6.09 6.09 0 0 1-.14-1.55 6.59 6.59 0 0 1 2-4.85A6.59 6.59 0 0 1 23 0a6.5 6.5 0 0 1 4.92 2.18A12.66 12.66 0 0 0 32.27.49a6.23 6.23 0 0 1-3 3.8 11.62 11.62 0 0 0 3.92-1.06z"/></svg>