<svg class="social-icon icon-ig" xmlns="http://www.w3.org/2000/svg" viewBox="0 0 27 27"><title>icon-ig</title><path d="M7.95,7.95a7.33,7.33,0,0,0-2,3.3H0V3.38A3.11,3.11,0,0,1,1,1,3.66,3.66,0,0,1,3.45,0H23.7A3.18,3.18,0,0,1,26,1a3.26,3.26,0,0,1,1,2.39v7.88H21.09a7.34,7.34,0,0,0-2-3.3A7.66,7.66,0,0,0,13.5,5.63,7.58,7.58,0,0,0,7.95,7.95ZM19.13,19.05a7.55,7.55,0,0,0,2.25-5.55H27V23.63A3.58,3.58,0,0,1,26,26a3,3,0,0,1-2.32,1H3.45a3.25,3.25,0,0,1-2.39-1A3.3,3.3,0,0,1,0,23.63V13.5H5.7a7.54,7.54,0,0,0,2.25,5.55,7.58,7.58,0,0,0,5.55,2.32A7.66,7.66,0,0,0,19.13,19.05Zm-5.62.07q-5.63,0-5.62-5.62T13.5,7.88q5.62,0,5.63,5.63T13.5,19.13ZM24.75,5.91V3.16a.88.88,0,0,0-.28-.63.88.88,0,0,0-.63-.28H21.16a.87.87,0,0,0-.63.28.87.87,0,0,0-.28.63V5.91a.87.87,0,0,0,.28.63.86.86,0,0,0,.63.21h2.67a.86.86,0,0,0,.63-.21A.87.87,0,0,0,24.75,5.91Z"/></svg>
